<svg xmlns="http://www.w3.org/2000/svg" class="svg-sprite" aria-hidden="true" focusable="false"><!--
  Vendored Lucide icon subset (https://lucide.dev) — ISC License, © Lucide
  Contributors. A single symbol sprite included once in layout.html and used via
  <svg class="icon"><use href="#icon-NAME"></use></svg>. Monochrome only: the
  shapes carry no stroke/fill of their own, so the .icon class supplies
  stroke: currentColor / fill: none / stroke-width / linecaps (see
  components.css). Add an icon by copying the corresponding Lucide 24x24 source
  geometry into a new <symbol>; keep it geometry-only. NOTE: paths here are
  transcribed from Lucide source and should be spot-checked against the upstream
  package if an icon renders oddly.
--><defs>
  <symbol id="icon-search" viewBox="0 0 24 24"><circle cx="11" cy="11" r="8"/><path d="m21 21-4.3-4.3"/></symbol>
  <symbol id="icon-refresh" viewBox="0 0 24 24"><path d="M3 12a9 9 0 0 1 9-9 9.75 9.75 0 0 1 6.74 2.74L21 8"/><path d="M21 3v5h-5"/><path d="M21 12a9 9 0 0 1-9 9 9.75 9.75 0 0 1-6.74-2.74L3 16"/><path d="M8 16H3v5"/></symbol>
  <symbol id="icon-close" viewBox="0 0 24 24"><path d="M18 6 6 18"/><path d="m6 6 12 12"/></symbol>
  <symbol id="icon-chevron-right" viewBox="0 0 24 24"><path d="m9 18 6-6-6-6"/></symbol>
  <symbol id="icon-chevron-down" viewBox="0 0 24 24"><path d="m6 9 6 6 6-6"/></symbol>
  <symbol id="icon-arrow-up-right" viewBox="0 0 24 24"><path d="M7 7h10v10"/><path d="M7 17 17 7"/></symbol>
  <symbol id="icon-sort-asc" viewBox="0 0 24 24"><path d="m5 12 7-7 7 7"/><path d="M12 19V5"/></symbol>
  <symbol id="icon-sort-desc" viewBox="0 0 24 24"><path d="M12 5v14"/><path d="m19 12-7 7-7-7"/></symbol>
  <symbol id="icon-lock" viewBox="0 0 24 24"><rect width="18" height="11" x="3" y="11" rx="2" ry="2"/><path d="M7 11V7a5 5 0 0 1 10 0v4"/></symbol>
  <symbol id="icon-box" viewBox="0 0 24 24"><path d="M21 8a2 2 0 0 0-1-1.73l-7-4a2 2 0 0 0-2 0l-7 4A2 2 0 0 0 3 8v8a2 2 0 0 0 1 1.73l7 4a2 2 0 0 0 2 0l7-4A2 2 0 0 0 21 16Z"/><path d="M3.3 7 12 12l8.7-5"/><path d="M12 22V12"/></symbol>
  <symbol id="icon-map-pin" viewBox="0 0 24 24"><path d="M20 10c0 4.993-5.539 10.193-7.399 11.799a1 1 0 0 1-1.202 0C9.539 20.193 4 14.993 4 10a8 8 0 0 1 16 0"/><circle cx="12" cy="10" r="3"/></symbol>
  <symbol id="icon-layers" viewBox="0 0 24 24"><path d="M12.83 2.18a2 2 0 0 0-1.66 0L2.6 6.08a1 1 0 0 0 0 1.83l8.58 3.91a2 2 0 0 0 1.66 0l8.58-3.9a1 1 0 0 0 0-1.83Z"/><path d="M2 12a1 1 0 0 0 .58.91l8.6 3.91a2 2 0 0 0 1.65 0l8.58-3.9A1 1 0 0 0 22 12"/><path d="M2 17a1 1 0 0 0 .58.91l8.6 3.91a2 2 0 0 0 1.65 0l8.58-3.9A1 1 0 0 0 22 17"/></symbol>
  <symbol id="icon-zoom-in" viewBox="0 0 24 24"><circle cx="11" cy="11" r="8"/><path d="m21 21-4.3-4.3"/><line x1="11" x2="11" y1="8" y2="14"/><line x1="8" x2="14" y1="11" y2="11"/></symbol>
  <symbol id="icon-zoom-out" viewBox="0 0 24 24"><circle cx="11" cy="11" r="8"/><path d="m21 21-4.3-4.3"/><line x1="8" x2="14" y1="11" y2="11"/></symbol>
  <symbol id="icon-crosshair" viewBox="0 0 24 24"><circle cx="12" cy="12" r="10"/><line x1="22" x2="18" y1="12" y2="12"/><line x1="6" x2="2" y1="12" y2="12"/><line x1="12" x2="12" y1="6" y2="2"/><line x1="12" x2="12" y1="22" y2="18"/></symbol>
  <symbol id="icon-alert-triangle" viewBox="0 0 24 24"><path d="m21.73 18-8-14a2 2 0 0 0-3.48 0l-8 14A2 2 0 0 0 4 21h16a2 2 0 0 0 1.73-3"/><path d="M12 9v4"/><path d="M12 17h.01"/></symbol>
  <symbol id="icon-info" viewBox="0 0 24 24"><circle cx="12" cy="12" r="10"/><path d="M12 16v-4"/><path d="M12 8h.01"/></symbol>
  <symbol id="icon-check" viewBox="0 0 24 24"><path d="M20 6 9 17l-5-5"/></symbol>
  <symbol id="icon-trash" viewBox="0 0 24 24"><path d="M3 6h18"/><path d="M19 6v14a2 2 0 0 1-2 2H7a2 2 0 0 1-2-2V6"/><path d="M8 6V4a2 2 0 0 1 2-2h4a2 2 0 0 1 2 2v2"/><line x1="10" x2="10" y1="11" y2="17"/><line x1="14" x2="14" y1="11" y2="17"/></symbol>
  <symbol id="icon-pencil" viewBox="0 0 24 24"><path d="M17 3a2.828 2.828 0 1 1 4 4L7.5 20.5 2 22l1.5-5.5Z"/><path d="m15 5 4 4"/></symbol>
  <symbol id="icon-download" viewBox="0 0 24 24"><path d="M21 15v4a2 2 0 0 1-2 2H5a2 2 0 0 1-2-2v-4"/><polyline points="7 10 12 15 17 10"/><line x1="12" x2="12" y1="15" y2="3"/></symbol>
  <symbol id="icon-battery" viewBox="0 0 24 24"><rect width="16" height="10" x="2" y="7" rx="2" ry="2"/><line x1="22" x2="22" y1="11" y2="13"/></symbol>
</defs></svg>
